HIERARCHY
ROOT Hips
{
	OFFSET 0.000000 0.000000 0.000000
	CHANNELS 6 Xposition Yposition Zposition Xrotation Yrotation Zrotation
	JOINT LeftUpLeg_virtual
	{
		OFFSET 0.000000 0.000000 0.000000
		CHANNELS 3 Xrotation Yrotation Zrotation
		JOINT LeftUpLeg
		{
			OFFSET 15.427100 -6.655098 0.678600
			CHANNELS 3 Xrotation Yrotation Zrotation
			JOINT LeftLeg
			{
				OFFSET 4.081073 -39.591068 13.024000
				CHANNELS 3 Xrotation Yrotation Zrotation
				JOINT LeftFoot
				{
					OFFSET -4.081074 -37.707932 -15.979700
					CHANNELS 3 Xrotation Yrotation Zrotation
					JOINT LeftToeBase
					{
						OFFSET 5.346399 -15.068900 20.645000
						CHANNELS 3 Xrotation Yrotation Zrotation
						JOINT LeftToe_End
						{
							OFFSET 2.754700 0.931300 11.300900
							CHANNELS 3 Xrotation Yrotation Zrotation
							End Site
							{
								OFFSET 0 0 0
							}
						}
					}
				}
			}
		}
	}
	JOINT RightUpLeg_virtual
	{
		OFFSET 0.000000 0.000000 0.000000
		CHANNELS 3 Xrotation Yrotation Zrotation
		JOINT RightUpLeg
		{
			OFFSET -15.569500 -6.655098 0.678600
			CHANNELS 3 Xrotation Yrotation Zrotation
			JOINT RightLeg
			{
				OFFSET -4.081825 -39.591045 13.023800
				CHANNELS 3 Xrotation Yrotation Zrotation
				JOINT RightFoot
				{
					OFFSET 4.081824 -37.707954 -15.979600
					CHANNELS 3 Xrotation Yrotation Zrotation
					JOINT RightToeBase
					{
						OFFSET -5.346400 -15.068900 20.645000
						CHANNELS 3 Xrotation Yrotation Zrotation
						JOINT RightToe_End
						{
							OFFSET -2.754700 0.931300 11.300900
							CHANNELS 3 Xrotation Yrotation Zrotation
							End Site
							{
								OFFSET 0 0 0
							}
						}
					}
				}
			}
		}
	}
	JOINT Spine_virtual
	{
		OFFSET 0.000000 0.000000 0.000000
		CHANNELS 3 Xrotation Yrotation Zrotation
		JOINT Spine
		{
			OFFSET -0.279200 12.230698 -2.892100
			CHANNELS 3 Xrotation Yrotation Zrotation
			JOINT Spine1
			{
				OFFSET -0.232667 10.192268 -1.242267
				CHANNELS 3 Xrotation Yrotation Zrotation
				JOINT Spine1_split
				{
					OFFSET -0.232667 10.192268 -1.242267
					CHANNELS 3 Xrotation Yrotation Zrotation
					JOINT Spine2
					{
						OFFSET -0.232667 10.192268 -1.242267
						CHANNELS 3 Xrotation Yrotation Zrotation
						JOINT Neck_virtual
						{
							OFFSET 0.000000 0.000000 0.000000
							CHANNELS 3 Xrotation Yrotation Zrotation
							JOINT Neck
							{
								OFFSET -0.418800 17.814194 8.416900
								CHANNELS 3 Xrotation Yrotation Zrotation
								JOINT Head
								{
									OFFSET 0.000000 7.031097 3.806800
									CHANNELS 3 Xrotation Yrotation Zrotation
									JOINT HeadTop_End
									{
										OFFSET 0.000000 24.646606 12.978600
										CHANNELS 3 Xrotation Yrotation Zrotation
										End Site
										{
											OFFSET 0 0 0
										}
									}
								}
							}
						}
						JOINT LeftShoulder_virtual
						{
							OFFSET 0.000000 0.000000 0.000000
							CHANNELS 3 Xrotation Yrotation Zrotation
							JOINT LeftShoulder
							{
								OFFSET 8.476499 7.247704 -3.868750
								CHANNELS 3 Xrotation Yrotation Zrotation
								JOINT LeftShoulder_split
								{
									OFFSET 8.476499 7.247704 -3.868750
									CHANNELS 3 Xrotation Yrotation Zrotation
									JOINT LeftArm
									{
										OFFSET 9.308998 -2.777710 0.208600
										CHANNELS 3 Xrotation Yrotation Zrotation
										JOINT LeftForeArm
										{
											OFFSET 29.972298 0.000000 0.000000
											CHANNELS 3 Xrotation Yrotation Zrotation
											JOINT LeftHand
											{
												OFFSET 26.026505 0.000000 0.000000
												CHANNELS 3 Xrotation Yrotation Zrotation
												End Site
												{
													OFFSET 0 0 0
												}
											}
										}
									}
								}
							}
						}
						JOINT RightShoulder_virtual
						{
							OFFSET 0.000000 0.000000 0.000000
							CHANNELS 3 Xrotation Yrotation Zrotation
							JOINT RightShoulder
							{
								OFFSET -7.570500 7.247704 -3.868750
								CHANNELS 3 Xrotation Yrotation Zrotation
								JOINT RightShoulder_split
								{
									OFFSET -7.570500 7.247704 -3.868750
									CHANNELS 3 Xrotation Yrotation Zrotation
									JOINT RightArm
									{
										OFFSET -9.308998 -2.777710 0.208500
										CHANNELS 3 Xrotation Yrotation Zrotation
										JOINT RightForeArm
										{
											OFFSET -29.972300 0.000000 0.000000
											CHANNELS 3 Xrotation Yrotation Zrotation
											JOINT RightHand
											{
												OFFSET -26.026505 0.000000 0.000000
												CHANNELS 3 Xrotation Yrotation Zrotation
												End Site
												{
													OFFSET 0 0 0
												}
											}
										}
									}
								}
							}
						}
					}
				}
			}
		}
	}
}
MOTION
Frames: 7
Frame Time: 0.03333333
-2.402832 78.113190 -0.314701 0.000000 0.000000 0.000000 4.726233 59.426218 -9.094636 -6.121189 10.995443 19.785043 46.566020 -7.401575 11.563100 -24.307303 7.773057 -17.747338 -9.515845 -0.013477 -1.648296 0.000000 0.000000 0.000000 7.273026 60.686654 -10.922982 -30.878073 7.870397 -23.312943 26.691824 9.934376 -1.116531 0.607111 8.169836 12.408776 -5.212404 -0.855414 1.160615 0.000000 0.000000 0.000000 5.921781 61.957821 -8.014022 1.243997 -3.955821 -1.016803 2.794192 -0.732342 -0.351876 1.180739 -0.497468 0.177283 0.000000 0.000000 0.000000 1.683151 -1.190859 -0.090383 -6.117800 -10.543362 -1.659726 -2.436232 -40.956543 5.874213 0.000000 0.000000 0.000000 1.467052 -1.076932 -0.411233 0.483710 -8.142986 -8.955469 -3.191774 -0.036196 -2.090104 2.815370 -46.055078 -47.266613 174.368145 -73.238766 173.246273 0.000000 0.000000 0.000000 2.357836 -0.895854 -0.425556 -0.113098 -2.048356 8.723168 -3.169612 6.930843 -0.312880 -22.449162 -7.266900 46.638335 -178.546459 65.347288 178.210413 0.000000 0.000000 0.000000 
-2.421559 81.602867 -0.620415 0.000000 0.000000 0.000000 5.416704 57.999467 -9.844064 -6.031345 8.967542 20.342315 43.393445 -4.406438 9.716134 -20.194972 8.488645 -13.468415 -7.757544 0.137215 -3.073236 0.000000 0.000000 0.000000 8.054507 58.016535 -11.331625 -29.781527 5.985890 -22.673394 22.062715 11.041029 -0.957850 2.694827 10.659201 16.348415 -7.490051 -0.272454 0.417253 0.000000 0.000000 0.000000 7.289094 58.936671 -9.174005 0.439273 -4.000485 -0.235998 2.513415 -0.753415 -0.276321 1.418782 -0.578538 0.085744 0.000000 0.000000 0.000000 2.003276 -1.100478 -0.105535 -5.810181 -10.383747 -1.336563 -2.080354 -40.905661 5.903755 0.000000 0.000000 0.000000 1.523276 -1.074806 -0.296609 0.480879 -8.473469 -8.128900 -3.772987 -0.898135 -0.799755 -0.580677 -46.437517 -47.491190 175.957107 -71.926359 175.081354 0.000000 0.000000 0.000000 2.419130 -0.841022 -0.310625 -0.023233 -1.917555 8.522305 -3.693810 5.697321 -1.308533 -23.891430 -7.946837 45.737669 -179.141068 64.172523 178.537621 0.000000 0.000000 0.000000 
-1.902828 87.378441 -1.888874 0.000000 0.000000 0.000000 6.006069 54.985249 -10.531748 -6.958848 6.389928 21.295997 38.595370 -2.222835 7.513834 -9.433266 7.318955 -12.688349 -3.516183 0.272211 -6.841646 0.000000 0.000000 0.000000 8.764140 53.087703 -11.651101 -27.801752 4.045320 -20.647657 14.527937 11.896256 -0.266294 4.925091 13.303300 18.741067 -7.479359 0.285324 -0.040208 0.000000 0.000000 0.000000 8.492020 53.770241 -10.091358 -0.287507 -3.744245 0.983944 2.281810 -0.635918 -0.268770 1.488550 -0.374233 0.096635 0.000000 0.000000 0.000000 2.416748 -0.883245 -0.167934 -5.351228 -9.793842 -0.876018 -1.434883 -39.577439 5.941681 0.000000 0.000000 0.000000 1.758455 -0.915293 -0.218260 0.495584 -8.282996 -6.814919 -3.351145 -1.351832 -0.573795 -5.236240 -46.196002 -47.358001 177.704788 -69.952783 176.891190 0.000000 0.000000 0.000000 2.497985 -0.727425 -0.310799 0.121042 -1.416713 8.145330 -3.635234 4.368433 -1.331935 -26.178874 -7.053240 43.324689 -179.029367 62.924183 178.210810 0.000000 0.000000 0.000000 
-0.933868 93.481766 -3.822010 0.000000 0.000000 0.000000 5.747138 49.944543 -10.625324 -7.823808 4.756481 21.933457 34.363030 -0.622450 5.377704 4.132381 4.380526 -13.093734 -5.047590 0.376267 -8.902460 0.000000 0.000000 0.000000 8.383143 46.865128 -11.309511 -25.814586 1.961169 -17.704381 8.357528 11.609706 0.572908 6.368786 14.123948 18.375714 -5.400511 0.619271 -0.140663 0.000000 0.000000 0.000000 8.686819 47.365934 -10.078252 -0.616617 -3.230335 2.214110 2.132775 -0.388835 -0.301950 1.305153 -0.280251 0.097321 0.000000 0.000000 0.000000 2.816668 -0.566426 -0.248468 -4.833325 -8.886600 -0.383775 -0.634736 -37.038244 5.888567 0.000000 0.000000 0.000000 2.084559 -0.641038 -0.180781 0.483180 -7.637553 -5.363790 -2.522366 -1.237103 -1.103624 -10.163281 -44.997375 -47.177807 179.144046 -68.183224 178.270519 0.000000 0.000000 0.000000 2.599064 -0.535830 -0.410141 0.263728 -0.543710 7.773974 -3.156766 3.714378 -0.833179 -28.421838 -4.619119 40.306852 -178.563917 62.148520 177.679189 0.000000 0.000000 0.000000 
0.192379 98.411034 -5.278683 0.000000 0.000000 0.000000 4.587821 43.704314 -9.814291 -7.831392 4.649498 21.197856 31.672076 1.011369 3.824838 13.313912 1.508379 -11.353734 -12.498427 0.709246 -8.229338 0.000000 0.000000 0.000000 6.668550 39.836795 -10.191044 -24.663535 -0.342528 -14.635521 6.688318 10.055425 1.127101 6.634095 12.014785 15.714869 -3.806973 0.662795 -0.020879 0.000000 0.000000 0.000000 7.703482 40.972495 -9.109851 -0.420380 -2.516116 3.046938 2.134168 -0.038026 -0.343904 0.965418 -0.157677 0.038239 0.000000 0.000000 0.000000 3.122385 -0.193382 -0.307593 -4.311642 -7.687423 0.018789 0.172226 -33.584747 5.686264 0.000000 0.000000 0.000000 2.434749 -0.285172 -0.190604 0.413320 -6.667941 -4.123537 -1.878968 -0.563426 -1.679392 -14.434205 -43.037172 -47.057749 -179.960636 -67.146019 179.063531 0.000000 0.000000 0.000000 2.694117 -0.250360 -0.559952 0.420316 0.595166 7.668896 -2.451191 3.778816 -0.565652 -29.956643 -1.188440 37.581811 -178.054193 62.194350 177.280114 0.000000 0.000000 0.000000 
1.372463 101.121071 -5.836208 0.000000 0.000000 0.000000 2.709230 36.630250 -8.119276 -8.864372 5.961724 19.795963 32.118787 3.003622 2.613679 15.512681 0.215577 -8.153180 -16.356051 1.126738 -8.103593 0.000000 0.000000 0.000000 3.933713 33.397330 -8.408755 -24.420578 -2.378306 -12.368428 10.913345 8.121833 1.180881 5.570762 7.827479 11.997243 -3.908466 0.489872 0.090476 0.000000 0.000000 0.000000 5.701031 35.512524 -7.407814 0.217337 -1.687561 3.284583 2.269144 0.391225 -0.370726 0.711295 -0.128436 -0.137118 0.000000 0.000000 0.000000 3.265678 0.170389 -0.333623 -3.876648 -6.288572 0.266528 0.897444 -29.636409 5.345854 0.000000 0.000000 0.000000 2.729792 0.104541 -0.254568 0.318766 -5.651391 -3.399861 -1.744027 0.106819 -2.218272 -16.888633 -40.459196 -47.043085 -179.642622 -66.899319 179.322641 0.000000 0.000000 0.000000 2.800728 0.100844 -0.684017 0.577590 1.841654 8.008402 -1.827621 3.998181 -0.556668 -30.320169 2.385320 35.821299 -177.808020 63.213858 177.298037 0.000000 0.000000 0.000000 
2.340567 101.919449 -6.423565 0.000000 0.000000 0.000000 0.793589 28.701148 -5.852031 -12.376861 7.344824 18.644501 35.029158 4.515904 1.846295 13.546709 -0.205716 -6.182600 -12.563410 1.431982 -8.917498 0.000000 0.000000 0.000000 1.395400 28.395531 -6.238480 -24.509572 -3.738186 -11.695429 19.244104 6.565278 1.038026 3.464972 3.385337 8.712654 -3.991254 0.255836 0.239661 0.000000 0.000000 0.000000 3.282430 30.248224 -5.414576 1.044092 -0.836128 2.863901 2.488411 0.835482 -0.376529 0.781312 -0.015574 -0.136308 0.000000 0.000000 0.000000 3.233127 0.509601 -0.338202 -3.393456 -4.844886 0.321901 1.484004 -25.555383 4.941251 0.000000 0.000000 0.000000 2.969177 0.486565 -0.353623 0.252979 -4.621358 -3.327023 -2.035799 0.617768 -2.487896 -17.441271 -37.649328 -47.433765 -179.729844 -67.424595 179.272098 0.000000 0.000000 0.000000 2.952338 0.512007 -0.769619 0.708758 2.914359 8.842646 -1.462729 4.291931 -0.955825 -29.777217 5.254016 35.287739 -178.008773 65.017698 177.773158 0.000000 0.000000 0.000000 
